# xmcd
#
# Track frame offsets:
#	150
#	14692
#	30551
#	47261
#	61806
#	77610
#	95329
#	114427
#	129145
#	146471
#	157469
#	171338
#	183777
#	199257
#	213088
#
# Disc length: 3050 seconds
#
# Revision: 1
# Processed by: cddbd v1.5.2PL0 Copyright (c) Steve Scherf et al.
# Submitted via: audiograbber 1.83.01
#
DISCID=c00be80f
DTITLE=The Boss Hoss - Battalion Stallion
DYEAR=2007
DGENRE=Country
TTITLE0=Stallion Battalion
TTITLE1=Monkey Business
TTITLE2=Shake - Shout
TTITLE3=Jose And Myling
TTITLE4=Free Love On A Free Love Free Way
TTITLE5=Polk Salad Annie
TTITLE6=Omniscient Lover
TTITLE7=Everything Counts
TTITLE8=Goodbye Mary
TTITLE9=Gay Bar
TTITLE10=Truck'n'Roll Rules
TTITLE11=High
TTITLE12=Drop It Like It's Hot
TTITLE13=Jumpin_Around
TTITLE14=Last Christmas
EXTD=
EXTT0=
EXTT1=
EXTT2=
EXTT3=
EXTT4=
EXTT5=
EXTT6=
EXTT7=
EXTT8=
EXTT9=
EXTT10=
EXTT11=
EXTT12=
EXTT13=
EXTT14=
PLAYORDER=
